<svg xmlns="http://www.w3.org/2000/svg" width="22" height="22" viewBox="0 0 22 22">
  <g id="Group_8191" data-name="Group 8191" transform="translate(-100 -1197)">
    <g id="Group_8193" data-name="Group 8193">
      <circle id="Ellipse_798" data-name="Ellipse 798" cx="11" cy="11" r="11" transform="translate(100 1197)" fill="#e4e5ee"/>
      <g id="Group_2573" data-name="Group 2573" transform="translate(-5960.651 -497.86)">
        <path id="Path_3364" data-name="Path 3364" d="M9618.4,785.222l.393,7.375s-4.977,1.578,2.524,2.069c.084.028,0-7.818,0-7.818s-.337-.365-.562-.393a2.52,2.52,0,0,1-1.293-1.879C9619.519,784.549,9618.4,785.222,9618.4,785.222Z" transform="translate(-3549.728 922.132)" fill="#72aafc"/>
        <path id="Path_3365" data-name="Path 3365" d="M9702.668,785.876s-1,7.18,0,7.293,6.441-.541,7.168-2.9-4.261-6.534-4.261-6.534-.7-.736-.926-.736c.028,0,.057,1.1-1.981,2.877" transform="translate(-3631.042 923.654)" fill="#72aafc"/>
        <path id="Path_3366" data-name="Path 3366" d="M9740,924.1h-.926s-.589-.224-.561.9c-.056-.084,0,1.767,0,1.767s-.056.841,1.318.449C9739.916,927.181,9740,924.1,9740,924.1Z" transform="translate(-3665.608 787.52)" fill="#fff"/>
        <g id="Group_2570" data-name="Group 2570" transform="translate(6063.933 1706.669)">
          <path id="Path_3362" data-name="Path 3362" d="M9605.311,784.133s.617-.757,1.066-.645c0-.028-.141.953,1.346,1.879,0,.028-.981,1.234-.981,1.234a.51.51,0,0,1-.842,0c.028-.056-1.093-2.3-1.093-2.3Z" transform="translate(-9600.544 -783.476)" fill="#fff"/>
          <path id="Path_3363" data-name="Path 3363" d="M9607.2,784.133s-.617-.757-1.066-.645c0-.028.141.953-1.346,1.879,0,.028.981,1.234.981,1.234a.51.51,0,0,0,.841,0c-.028-.056,1.094-2.3,1.094-2.3Z" transform="translate(-9596.5 -783.476)" fill="#fff"/>
          <path id="Path_3360" data-name="Path 3360" d="M9483.2,806.052s.141-1.388,2.524-1.921a19.849,19.849,0,0,1,2.159-1.136s2.854,9.395.653,9.145a8.026,8.026,0,0,1-4.65-2.25C9482.6,808.824,9483.2,806.052,9483.2,806.052Z" transform="translate(-9483.2 -802.311)" fill="#142f5e"/>
          <path id="Path_3361" data-name="Path 3361" d="M9777.105,800.6s-1.419,6.185-.315,7.934,3.441.193,4.731-.938.439-3.847.439-3.847a2.8,2.8,0,0,0-1.795-1.632C9780.193,802.146,9777.105,800.6,9777.105,800.6Z" transform="translate(-9766.51 -800)" fill="#142f5e"/>
        </g>
        <path id="Path_3367" data-name="Path 3367" d="M9648.652,765.561c.057.063,0,.428,0,.428s-.589.841,1.822,2.608c0,.028,1.991-1.262,1.991-2.468V765.4a3.146,3.146,0,0,1-1.822,1.038A3.753,3.753,0,0,1,9648.652,765.561Z" transform="translate(-3578.859 940.636)" fill="#ffc7ab"/>
        <path id="Path_3368" data-name="Path 3368" d="M9619.1,550.828a3.357,3.357,0,0,0,2.542,3.365c.019-.019,1.552.187,2.655-1.907a5.651,5.651,0,0,0,.3-1.589s.067-.56.124-.792a2.87,2.87,0,0,0-.07-1.332c0,.011.405-3.2-1.5-3.106s-2.693-.567-3.705.773S9619.1,550.828,9619.1,550.828Z" transform="translate(-3550.19 1152.939)" fill="#ffc7ab"/>
        <path id="Path_3370" data-name="Path 3370" d="M9600.184,645.855s-.546-.231-.672.294a.985.985,0,0,0,.1.561.965.965,0,0,1,.168.554.554.554,0,0,0,.617.463C9600.408,647.727,9600.184,645.855,9600.184,645.855Z" transform="translate(-3531.495 1056.04)" fill="#dfdddd"/>
        <path id="Path_3371" data-name="Path 3371" d="M9782.07,645.9s.678-.3.706.449a1.4,1.4,0,0,1-.112.365,1.545,1.545,0,0,0-.2.589.485.485,0,0,1-.561.47,13.75,13.75,0,0,0,.17-1.542.8.8,0,0,1,0-.329Z" transform="translate(-3707.532 1056.003)" fill="#dfdddd"/>
        <path id="Subtraction_23" data-name="Subtraction 23" d="M2.769,3.639h0A1.941,1.941,0,0,1,2.2,3.552a2.5,2.5,0,0,1-.513-.225A2.983,2.983,0,0,1,.924,2.7l0,0h0a2.076,2.076,0,0,1-.341-.4,3.081,3.081,0,0,1-.263-.47,3.7,3.7,0,0,1-.225-.671h0C.1,1.145,0,.469,0,.462A1.18,1.18,0,0,0,.165.777a1.694,1.694,0,0,0,.684.554h0a.109.109,0,0,0,0-.025A1.584,1.584,0,0,1,1.017.753,1.043,1.043,0,0,1,1.289.42a1.01,1.01,0,0,1,.476-.2h0A4.508,4.508,0,0,0,2.382.041.414.414,0,0,1,2.534.008a.262.262,0,0,1,.25.211A.172.172,0,0,0,2.8.188a.331.331,0,0,1,.13-.147L2.956.03h0A.183.183,0,0,1,3.046,0a.624.624,0,0,1,.261.107A.784.784,0,0,0,3.54.162c.092.016.2.034.3.057a1.155,1.155,0,0,1,.511.346A1.422,1.422,0,0,1,4.585.9a1.128,1.128,0,0,1,.115.426,2.994,2.994,0,0,0,.32-.249,2.166,2.166,0,0,0,.5-.621h0a3.325,3.325,0,0,1-.129.746,3.967,3.967,0,0,1-.276.715A3.73,3.73,0,0,1,4.6,2.7a1.14,1.14,0,0,1-.152.149,4.349,4.349,0,0,1-.4.309,3.444,3.444,0,0,1-.549.315,1.832,1.832,0,0,1-.614.167C2.848,3.638,2.808,3.639,2.769,3.639Zm0-1.855h0a.1.1,0,0,1,.077.038.365.365,0,0,1,.069.147.5.5,0,0,0,.49.359.709.709,0,0,0,.372-.114,1.456,1.456,0,0,0,.216-.177.69.69,0,0,0,.225-.419,1.3,1.3,0,0,0-.16-.2.955.955,0,0,0-.365-.253c-.046-.014-.1-.028-.162-.043A2.094,2.094,0,0,1,3.061.969.389.389,0,0,1,2.815.623.109.109,0,0,0,2.8.564C2.788.552,2.777.537,2.763.537S2.74.549,2.73.573a.584.584,0,0,0-.02.062h0a.574.574,0,0,1-.089.2.431.431,0,0,1-.269.157,1.621,1.621,0,0,0-1.045.666h0v0c.049.11.317.659.814.659a.788.788,0,0,0,.293-.06l.006,0a.541.541,0,0,0,.24-.417.152.152,0,0,1,.107-.058Z" transform="translate(6068.901 1703.459)" fill="#56415e"/>
        <path id="Path_3374" data-name="Path 3374" d="M9608.638,518.966s.072-.516.254-.648.05-.785.05-.785-.127-1.6,1.409-1.388a3.378,3.378,0,0,1,.673.119,1.591,1.591,0,0,0,1.178-.042c0-.021,1.381-.4,1.795.526,0-.025.18.249.159,1.146v.294a2.266,2.266,0,0,1,.286.778c-.014-.007.364-.07.364-.07s.113-2.029.128-2.057a2.764,2.764,0,0,0-1.492-2.079,3.875,3.875,0,0,0-4.167.273,1.525,1.525,0,0,0-.383.957c.011.014.019.133-.157.231s-.757.4-.414,2.674C9608.313,518.889,9608.638,518.966,9608.638,518.966Z" transform="translate(-3539.899 1182.949)" fill="#56415e"/>
      </g>
    </g>
  </g>
</svg>
